<svg width="48" height="48" viewBox="0 0 48 48" fill="none" xmlns="http://www.w3.org/2000/svg">
<path d="M46 8V20M46 20H34M46 20L36.74 11.28C33.9812 8.51948 30.4 6.73037 26.5359 6.18229C22.6719 5.6342 18.7343 6.35683 15.3167 8.24128C11.8991 10.1257 9.1865 13.0699 7.58773 16.6301C5.98896 20.1904 5.59062 24.1738 6.45273 27.9801C7.31485 31.7864 9.39071 35.2095 12.3675 37.7333C15.3443 40.2572 19.0608 41.7453 22.9568 41.9732C26.8529 42.2011 30.7175 41.1566 33.9683 38.997C37.2191 36.8374 39.6799 33.6798 40.98 30" stroke="#EADDFF" stroke-width="4" stroke-linecap="round" stroke-linejoin="round"/>
</svg>
