<svg width="456" height="108" viewBox="0 0 456 108" fill="none" xmlns="http://www.w3.org/2000/svg">
<rect width="456" height="108" rx="35" fill="#6C5F91"/>
<path d="M125.976 70.76C126.416 70.8 126.996 70.84 127.716 70.88C128.436 70.88 129.416 70.88 130.656 70.88C135.736 70.88 139.516 69.6 141.996 67.04C144.516 64.44 145.776 60.82 145.776 56.18C145.776 51.46 144.556 47.84 142.116 45.32C139.676 42.8 135.896 41.54 130.776 41.54C128.536 41.54 126.936 41.6 125.976 41.72V70.76ZM153.696 56.18C153.696 59.78 153.136 62.92 152.016 65.6C150.896 68.24 149.296 70.46 147.216 72.26C145.176 74.02 142.696 75.34 139.776 76.22C136.896 77.06 133.696 77.48 130.176 77.48C128.496 77.48 126.596 77.4 124.476 77.24C122.356 77.12 120.336 76.84 118.416 76.4V36.02C120.336 35.58 122.376 35.3 124.536 35.18C126.696 35.06 128.616 35 130.296 35C133.776 35 136.956 35.42 139.836 36.26C142.716 37.06 145.176 38.34 147.216 40.1C149.296 41.82 150.896 44.02 152.016 46.7C153.136 49.34 153.696 52.5 153.696 56.18ZM189.971 61.28C189.971 63.76 189.611 66.02 188.891 68.06C188.171 70.1 187.151 71.84 185.831 73.28C184.511 74.72 182.911 75.84 181.031 76.64C179.191 77.44 177.151 77.84 174.911 77.84C172.671 77.84 170.631 77.44 168.791 76.64C166.951 75.84 165.371 74.72 164.051 73.28C162.731 71.84 161.691 70.1 160.931 68.06C160.211 66.02 159.851 63.76 159.851 61.28C159.851 58.8 160.211 56.56 160.931 54.56C161.691 52.52 162.731 50.78 164.051 49.34C165.411 47.9 167.011 46.8 168.851 46.04C170.691 45.24 172.711 44.84 174.911 44.84C177.111 44.84 179.131 45.24 180.971 46.04C182.851 46.8 184.451 47.9 185.771 49.34C187.091 50.78 188.111 52.52 188.831 54.56C189.591 56.56 189.971 58.8 189.971 61.28ZM182.531 61.28C182.531 58.16 181.851 55.7 180.491 53.9C179.171 52.06 177.311 51.14 174.911 51.14C172.511 51.14 170.631 52.06 169.271 53.9C167.951 55.7 167.291 58.16 167.291 61.28C167.291 64.44 167.951 66.94 169.271 68.78C170.631 70.62 172.511 71.54 174.911 71.54C177.311 71.54 179.171 70.62 180.491 68.78C181.851 66.94 182.531 64.44 182.531 61.28ZM215.526 57.26C214.606 60.78 213.606 64.22 212.526 67.58C211.486 70.9 210.446 74.04 209.406 77H203.466C202.666 75.16 201.826 73.06 200.946 70.7C200.066 68.34 199.186 65.82 198.306 63.14C197.426 60.46 196.546 57.64 195.666 54.68C194.786 51.72 193.926 48.7 193.086 45.62H200.766C201.126 47.3 201.546 49.12 202.026 51.08C202.506 53 203.006 54.98 203.526 57.02C204.046 59.02 204.586 60.98 205.146 62.9C205.706 64.82 206.266 66.58 206.826 68.18C207.426 66.34 208.006 64.44 208.566 62.48C209.166 60.52 209.726 58.56 210.246 56.6C210.766 54.64 211.246 52.74 211.686 50.9C212.166 49.02 212.586 47.26 212.946 45.62H218.526C218.886 47.26 219.286 49.02 219.726 50.9C220.166 52.74 220.626 54.64 221.106 56.6C221.626 58.56 222.166 60.52 222.726 62.48C223.326 64.44 223.926 66.34 224.526 68.18C225.046 66.58 225.586 64.82 226.146 62.9C226.706 60.98 227.246 59.02 227.766 57.02C228.326 54.98 228.846 53 229.326 51.08C229.806 49.12 230.226 47.3 230.586 45.62H238.086C237.246 48.7 236.386 51.72 235.506 54.68C234.626 57.64 233.746 60.46 232.866 63.14C231.986 65.82 231.106 68.34 230.226 70.7C229.346 73.06 228.486 75.16 227.646 77H221.766C220.726 74.04 219.646 70.9 218.526 67.58C217.446 64.22 216.446 60.78 215.526 57.26ZM243.622 46.64C245.022 46.24 246.842 45.86 249.082 45.5C251.322 45.14 253.802 44.96 256.522 44.96C259.082 44.96 261.222 45.32 262.942 46.04C264.662 46.72 266.022 47.7 267.022 48.98C268.062 50.22 268.782 51.74 269.182 53.54C269.622 55.3 269.842 57.24 269.842 59.36V77H262.582V60.5C262.582 58.82 262.462 57.4 262.222 56.24C262.022 55.04 261.662 54.08 261.142 53.36C260.662 52.6 259.982 52.06 259.102 51.74C258.262 51.38 257.222 51.2 255.982 51.2C255.062 51.2 254.102 51.26 253.102 51.38C252.102 51.5 251.362 51.6 250.882 51.68V77H243.622V46.64ZM289.64 77.6C287.48 77.56 285.68 77.32 284.24 76.88C282.84 76.44 281.72 75.82 280.88 75.02C280.04 74.18 279.44 73.16 279.08 71.96C278.76 70.72 278.6 69.32 278.6 67.76V31.64L285.86 30.44V66.38C285.86 67.26 285.92 68 286.04 68.6C286.2 69.2 286.46 69.72 286.82 70.16C287.18 70.56 287.66 70.88 288.26 71.12C288.9 71.32 289.7 71.48 290.66 71.6L289.64 77.6ZM324.912 61.28C324.912 63.76 324.552 66.02 323.832 68.06C323.112 70.1 322.092 71.84 320.772 73.28C319.452 74.72 317.852 75.84 315.972 76.64C314.132 77.44 312.092 77.84 309.852 77.84C307.612 77.84 305.572 77.44 303.732 76.64C301.892 75.84 300.312 74.72 298.992 73.28C297.672 71.84 296.632 70.1 295.872 68.06C295.152 66.02 294.792 63.76 294.792 61.28C294.792 58.8 295.152 56.56 295.872 54.56C296.632 52.52 297.672 50.78 298.992 49.34C300.352 47.9 301.952 46.8 303.792 46.04C305.632 45.24 307.652 44.84 309.852 44.84C312.052 44.84 314.072 45.24 315.912 46.04C317.792 46.8 319.392 47.9 320.712 49.34C322.032 50.78 323.052 52.52 323.772 54.56C324.532 56.56 324.912 58.8 324.912 61.28ZM317.472 61.28C317.472 58.16 316.792 55.7 315.432 53.9C314.112 52.06 312.252 51.14 309.852 51.14C307.452 51.14 305.572 52.06 304.212 53.9C302.892 55.7 302.232 58.16 302.232 61.28C302.232 64.44 302.892 66.94 304.212 68.78C305.572 70.62 307.452 71.54 309.852 71.54C312.252 71.54 314.112 70.62 315.432 68.78C316.792 66.94 317.472 64.44 317.472 61.28ZM343.431 71.9C345.671 71.9 347.371 71.78 348.531 71.54V63.5C348.131 63.38 347.551 63.26 346.791 63.14C346.031 63.02 345.191 62.96 344.271 62.96C343.471 62.96 342.651 63.02 341.811 63.14C341.011 63.26 340.271 63.48 339.591 63.8C338.951 64.12 338.431 64.58 338.031 65.18C337.631 65.74 337.431 66.46 337.431 67.34C337.431 69.06 337.971 70.26 339.051 70.94C340.131 71.58 341.591 71.9 343.431 71.9ZM342.831 44.84C345.231 44.84 347.251 45.14 348.891 45.74C350.531 46.34 351.831 47.18 352.791 48.26C353.791 49.34 354.491 50.66 354.891 52.22C355.331 53.74 355.551 55.42 355.551 57.26V76.28C354.431 76.52 352.731 76.8 350.451 77.12C348.211 77.48 345.671 77.66 342.831 77.66C340.951 77.66 339.231 77.48 337.671 77.12C336.111 76.76 334.771 76.18 333.651 75.38C332.571 74.58 331.711 73.54 331.071 72.26C330.471 70.98 330.171 69.4 330.171 67.52C330.171 65.72 330.511 64.2 331.191 62.96C331.911 61.72 332.871 60.72 334.071 59.96C335.271 59.16 336.651 58.6 338.211 58.28C339.811 57.92 341.471 57.74 343.191 57.74C343.991 57.74 344.831 57.8 345.711 57.92C346.591 58 347.531 58.16 348.531 58.4V57.2C348.531 56.36 348.431 55.56 348.231 54.8C348.031 54.04 347.671 53.38 347.151 52.82C346.671 52.22 346.011 51.76 345.171 51.44C344.371 51.12 343.351 50.96 342.111 50.96C340.431 50.96 338.891 51.08 337.491 51.32C336.091 51.56 334.951 51.84 334.071 52.16L333.171 46.28C334.091 45.96 335.431 45.64 337.191 45.32C338.951 45 340.831 44.84 342.831 44.84ZM370.142 61.22C370.142 64.42 370.902 66.94 372.422 68.78C373.942 70.58 376.042 71.48 378.722 71.48C379.882 71.48 380.862 71.44 381.662 71.36C382.502 71.24 383.182 71.12 383.702 71V53C383.062 52.56 382.202 52.16 381.122 51.8C380.082 51.4 378.962 51.2 377.762 51.2C375.122 51.2 373.182 52.1 371.942 53.9C370.742 55.7 370.142 58.14 370.142 61.22ZM390.962 76.04C389.522 76.48 387.702 76.88 385.502 77.24C383.342 77.6 381.062 77.78 378.662 77.78C376.182 77.78 373.962 77.4 372.002 76.64C370.042 75.88 368.362 74.8 366.962 73.4C365.602 71.96 364.542 70.24 363.782 68.24C363.062 66.2 362.702 63.92 362.702 61.4C362.702 58.92 363.002 56.68 363.602 54.68C364.242 52.64 365.162 50.9 366.362 49.46C367.562 48.02 369.022 46.92 370.742 46.16C372.462 45.36 374.442 44.96 376.682 44.96C378.202 44.96 379.542 45.14 380.702 45.5C381.862 45.86 382.862 46.26 383.702 46.7V31.64L390.962 30.44V76.04Z" fill="white"/>
<path d="M65 65.6667L50.4167 51.0834L54.5 46.8542L62.0833 54.4376V30.6667H67.9167V54.4376L75.5 46.8542L79.5833 51.0834L65 65.6667ZM47.5 77.3334C45.8958 77.3334 44.5226 76.7622 43.3802 75.6199C42.2379 74.4775 41.6667 73.1042 41.6667 71.5001V62.7501H47.5V71.5001H82.5V62.7501H88.3333V71.5001C88.3333 73.1042 87.7622 74.4775 86.6198 75.6199C85.4774 76.7622 84.1042 77.3334 82.5 77.3334H47.5Z" fill="#FEF7FF"/>
</svg>
